<?xml version="1.0" encoding="UTF-8" standalone="no"?><svg xmlns="http://www.w3.org/2000/svg" xmlns:xlink="http://www.w3.org/1999/xlink" clip-rule="evenodd" stroke-miterlimit="10" viewBox="0 0 600 200"><desc>SVG generated by Keynote</desc><defs></defs><g transform="matrix(1.00, 0.00, -0.00, -1.00, 0.0, 200.0)"><path d="M 0.0 200.0 L 600.0 200.0 L 600.0 0.0 L 0.0 0.0 Z M 0.0 200.0 " fill="#FEFFFF"></path><path d="M 0.0 0.0 L 29.8 37.7 L 30.4 38.5 " fill="none" stroke="#E1163C" stroke-width="2.00" transform="matrix(0.98, -0.19, -0.19, -0.98, 273.2, 130.2)"></path><path d="M 289.9 87.5 L 298.6 81.1 L 298.4 91.9 L 295.2 87.5 Z M 289.9 87.5 " fill="#E1163C"></path><path d="M 3.8 4.9 L 4.5 5.6 L 25.5 32.2 " fill="none" stroke="#2B91D9" stroke-width="2.00" transform="matrix(0.42, -0.91, -0.91, -0.42, 377.6, 115.9)"></path><path d="M 377.5 105.2 L 377.6 115.9 L 369.0 109.6 L 374.4 109.5 Z M 377.5 105.2 " fill="#2B91D9"></path><path d="M 0.1 0.1 L 129.1 0.1 " fill="none" stroke="#85878C" stroke-width="3.00" transform="matrix(1.00, 0.00, 0.00, -1.00, 93.9, 171.6)"></path><path d="M 227.9 178.7 C 231.2 175.4 231.2 170.0 227.9 166.7 C 224.6 163.4 219.3 163.4 216.0 166.7 C 212.7 170.0 212.7 175.4 216.0 178.7 C 219.3 182.0 224.6 182.0 227.9 178.7 " fill="#85878C"></path><path d="M 14.4 2.5 C 17.7 5.8 17.7 11.1 14.4 14.4 C 11.1 17.7 5.8 17.7 2.5 14.4 C -0.8 11.1 -0.8 5.8 2.5 2.5 C 5.8 -0.8 11.1 -0.8 14.4 2.5 " fill="none" stroke="#85878C" stroke-width="1.00" transform="matrix(1.00, 0.00, 0.00, -1.00, 213.5, 181.2)"></path><path d="M 0.0 0.2 L 235.0 0.2 " fill="none" stroke="#2B91D9" stroke-width="3.00" transform="matrix(1.00, 0.00, 0.00, -1.00, 151.0, 122.7)"></path><path d="M 159.8 128.7 C 163.1 125.4 163.1 120.1 159.8 116.8 C 156.5 113.5 151.1 113.5 147.8 116.8 C 144.5 120.1 144.5 125.4 147.8 128.7 C 151.1 132.0 156.5 132.0 159.8 128.7 " fill="#2B91D9"></path><path d="M 14.4 2.5 C 17.7 5.8 17.7 11.1 14.4 14.4 C 11.1 17.7 5.8 17.7 2.5 14.4 C -0.8 11.1 -0.8 5.8 2.5 2.5 C 5.8 -0.8 11.1 -0.8 14.4 2.5 " fill="none" stroke="#2B91D9" stroke-width="1.00" transform="matrix(1.00, 0.00, 0.00, -1.00, 145.4, 131.2)"></path><path d="M 227.9 128.7 C 231.2 125.4 231.2 120.1 227.9 116.8 C 224.6 113.5 219.3 113.5 216.0 116.8 C 212.7 120.1 212.7 125.4 216.0 128.7 C 219.3 132.0 224.6 132.0 227.9 128.7 " fill="#2B91D9"></path><path d="M 14.4 2.5 C 17.7 5.8 17.7 11.1 14.4 14.4 C 11.1 17.7 5.8 17.7 2.5 14.4 C -0.8 11.1 -0.8 5.8 2.5 2.5 C 5.8 -0.8 11.1 -0.8 14.4 2.5 " fill="none" stroke="#2B91D9" stroke-width="1.00" transform="matrix(1.00, 0.00, 0.00, -1.00, 213.5, 131.2)"></path><path d="M 281.6 128.7 C 284.9 125.4 284.9 120.1 281.6 116.8 C 278.3 113.5 272.9 113.5 269.6 116.8 C 266.3 120.1 266.3 125.4 269.6 128.7 C 272.9 132.0 278.3 132.0 281.6 128.7 " fill="#2B91D9"></path><path d="M 14.4 2.5 C 17.7 5.8 17.7 11.1 14.4 14.4 C 11.1 17.7 5.8 17.7 2.5 14.4 C -0.8 11.1 -0.8 5.8 2.5 2.5 C 5.8 -0.8 11.1 -0.8 14.4 2.5 " fill="none" stroke="#2B91D9" stroke-width="1.00" transform="matrix(1.00, 0.00, 0.00, -1.00, 267.2, 131.2)"></path><path d="M 335.2 128.7 C 338.5 125.4 338.5 120.1 335.2 116.8 C 331.9 113.5 326.6 113.5 323.3 116.8 C 320.0 120.1 320.0 125.4 323.3 128.7 C 326.6 132.0 331.9 132.0 335.2 128.7 " fill="#2B91D9"></path><path d="M 14.4 2.5 C 17.7 5.8 17.7 11.1 14.4 14.4 C 11.1 17.7 5.8 17.7 2.5 14.4 C -0.8 11.1 -0.8 5.8 2.5 2.5 C 5.8 -0.8 11.1 -0.8 14.4 2.5 " fill="none" stroke="#2B91D9" stroke-width="1.00" transform="matrix(1.00, 0.00, 0.00, -1.00, 320.8, 131.2)"></path><text xml:space="preserve" font-family="AvenirNextCondensed-DemiBold,Avenir Next Condensed" font-weight="bold" font-size="14.0" fill="#2B91D9" transform="matrix(1.00, 0.00, -0.00, -1.00, 100.3, 118.9)">b</text><text xml:space="preserve" font-family="AvenirNextCondensed-DemiBold,Avenir Next Condensed" font-weight="bold" font-size="14.0" fill="#2B91D9" transform="matrix(1.00, 0.00, -0.00, -1.00, 107.3, 118.9)">o</text><text xml:space="preserve" font-family="AvenirNextCondensed-DemiBold,Avenir Next Condensed" font-weight="bold" font-size="14.0" fill="#2B91D9" transform="matrix(1.00, 0.00, -0.00, -1.00, 113.8, 118.9)">b</text><text xml:space="preserve" font-family="AvenirNextCondensed-DemiBold,Avenir Next Condensed" font-weight="bold" font-size="14.0" fill="#2B91D9" transform="matrix(1.00, 0.00, -0.00, -1.00, 120.8, 118.9)">/</text><text xml:space="preserve" font-family="AvenirNextCondensed-DemiBold,Avenir Next Condensed" font-weight="bold" font-size="14.0" fill="#2B91D9" transform="matrix(1.00, 0.00, -0.00, -1.00, 124.5, 118.9)">f</text><text xml:space="preserve" font-family="AvenirNextCondensed-DemiBold,Avenir Next Condensed" font-weight="bold" font-size="14.0" fill="#2B91D9" transform="matrix(1.00, 0.00, -0.00, -1.00, 128.2, 118.9)">b</text><text xml:space="preserve" font-family="AvenirNextCondensed-DemiBold,Avenir Next Condensed" font-weight="bold" font-size="14.0" fill="#E1163C" transform="matrix(1.00, 0.00, -0.00, -1.00, 168.1, 66.7)">a</text><text xml:space="preserve" font-family="AvenirNextCondensed-DemiBold,Avenir Next Condensed" font-weight="bold" font-size="14.0" fill="#E1163C" transform="matrix(1.00, 0.00, -0.00, -1.00, 174.2, 66.7)">l</text><text xml:space="preserve" font-family="AvenirNextCondensed-DemiBold,Avenir Next Condensed" font-weight="bold" font-size="14.0" fill="#E1163C" transform="matrix(1.00, 0.00, -0.00, -1.00, 177.7, 66.7)">i</text><text xml:space="preserve" font-family="AvenirNextCondensed-DemiBold,Avenir Next Condensed" font-weight="bold" font-size="14.0" fill="#E1163C" transform="matrix(1.00, 0.00, -0.00, -1.00, 181.2, 66.7)">c</text><text xml:space="preserve" font-family="AvenirNextCondensed-DemiBold,Avenir Next Condensed" font-weight="bold" font-size="14.0" fill="#E1163C" transform="matrix(1.00, 0.00, -0.00, -1.00, 186.1, 66.7)">e</text><text xml:space="preserve" font-family="AvenirNextCondensed-DemiBold,Avenir Next Condensed" font-weight="bold" font-size="14.0" fill="#E1163C" transform="matrix(1.00, 0.00, -0.00, -1.00, 192.3, 66.7)">/</text><text xml:space="preserve" font-family="AvenirNextCondensed-DemiBold,Avenir Next Condensed" font-weight="bold" font-size="14.0" fill="#E1163C" transform="matrix(1.00, 0.00, -0.00, -1.00, 196.0, 66.7)">f</text><text xml:space="preserve" font-family="AvenirNextCondensed-DemiBold,Avenir Next Condensed" font-weight="bold" font-size="14.0" fill="#E1163C" transform="matrix(1.00, 0.00, -0.00, -1.00, 199.8, 66.7)">b</text><path d="M 0.0 0.0 L 34.3 43.3 " fill="none" stroke="#2B91D9" stroke-width="3.00" transform="matrix(0.98, -0.19, -0.19, -0.98, 131.2, 170.1)"></path><path d="M 134.6 178.7 C 137.9 175.4 137.9 170.0 134.6 166.7 C 131.3 163.4 125.9 163.4 122.6 166.7 C 119.3 170.0 119.3 175.4 122.6 178.7 C 125.9 182.0 131.3 182.0 134.6 178.7 " fill="#85878C"></path><path d="M 14.4 2.5 C 17.7 5.8 17.7 11.1 14.4 14.4 C 11.1 17.7 5.8 17.7 2.5 14.4 C -0.8 11.1 -0.8 5.8 2.5 2.5 C 5.8 -0.8 11.1 -0.8 14.4 2.5 " fill="none" stroke="#85878C" stroke-width="1.00" transform="matrix(1.00, 0.00, 0.00, -1.00, 120.1, 181.2)"></path><path d="M 254.4 78.8 C 257.7 75.5 257.7 70.1 254.4 66.8 C 251.1 63.5 245.8 63.5 242.5 66.8 C 239.2 70.1 239.2 75.5 242.5 78.8 C 245.8 82.1 251.1 82.1 254.4 78.8 " fill="#E1163C"></path><path d="M 14.4 2.5 C 17.7 5.8 17.7 11.1 14.4 14.4 C 11.1 17.7 5.8 17.7 2.5 14.4 C -0.8 11.1 -0.8 5.8 2.5 2.5 C 5.8 -0.8 11.1 -0.8 14.4 2.5 " fill="none" stroke="#E1163C" stroke-width="1.00" transform="matrix(1.00, 0.00, 0.00, -1.00, 240.0, 81.2)"></path><path d="M 361.7 78.5 C 365.0 75.2 365.0 69.9 361.7 66.6 C 358.4 63.3 353.1 63.3 349.8 66.6 C 346.5 69.9 346.5 75.2 349.8 78.5 C 353.1 81.8 358.4 81.8 361.7 78.5 " fill="#E1163C"></path><path d="M 14.4 2.5 C 17.7 5.8 17.7 11.1 14.4 14.4 C 11.1 17.7 5.8 17.7 2.5 14.4 C -0.8 11.1 -0.8 5.8 2.5 2.5 C 5.8 -0.8 11.1 -0.8 14.4 2.5 " fill="none" stroke="#E1163C" stroke-width="1.00" transform="matrix(1.00, 0.00, 0.00, -1.00, 347.3, 81.0)"></path><path d="M 0.0 0.0 L 34.8 99.4 " fill="none" stroke="#E1163C" stroke-width="3.00" transform="matrix(1.00, 0.08, 0.08, -1.00, 177.8, 166.4)"></path><path d="M 308.4 78.8 C 311.7 75.5 311.7 70.1 308.4 66.8 C 305.1 63.5 299.8 63.5 296.5 66.8 C 293.2 70.1 293.2 75.5 296.5 78.8 C 299.8 82.1 305.1 82.1 308.4 78.8 " fill="#E1163C"></path><path d="M 14.4 2.5 C 17.7 5.8 17.7 11.1 14.4 14.4 C 11.1 17.7 5.8 17.7 2.5 14.4 C -0.8 11.1 -0.8 5.8 2.5 2.5 C 5.8 -0.8 11.1 -0.8 14.4 2.5 " fill="none" stroke="#E1163C" stroke-width="1.00" transform="matrix(1.00, 0.00, 0.00, -1.00, 294.0, 81.2)"></path><path d="M 0.1 -0.2 L 129.1 -0.2 " fill="none" stroke="#E1163C" stroke-width="3.00" transform="matrix(1.00, 0.00, 0.00, -1.00, 219.9, 71.3)"></path><text xml:space="preserve" font-family="AvenirNextCondensed-DemiBold,Avenir Next Condensed" font-weight="bold" font-size="14.0" fill="#85878C" transform="matrix(1.00, 0.00, -0.00, -1.00, 54.0, 168.3)">m</text><text xml:space="preserve" font-family="AvenirNextCondensed-DemiBold,Avenir Next Condensed" font-weight="bold" font-size="14.0" fill="#85878C" transform="matrix(1.00, 0.00, -0.00, -1.00, 64.6, 168.3)">a</text><text xml:space="preserve" font-family="AvenirNextCondensed-DemiBold,Avenir Next Condensed" font-weight="bold" font-size="14.0" fill="#85878C" transform="matrix(1.00, 0.00, -0.00, -1.00, 70.7, 168.3)">s</text><text xml:space="preserve" font-family="AvenirNextCondensed-DemiBold,Avenir Next Condensed" font-weight="bold" font-size="14.0" fill="#85878C" transform="matrix(1.00, 0.00, -0.00, -1.00, 75.9, 168.3)">t</text><text xml:space="preserve" font-family="AvenirNextCondensed-DemiBold,Avenir Next Condensed" font-weight="bold" font-size="14.0" fill="#85878C" transform="matrix(1.00, 0.00, -0.00, -1.00, 79.9, 168.3)">e</text><text xml:space="preserve" font-family="AvenirNextCondensed-DemiBold,Avenir Next Condensed" font-weight="bold" font-size="14.0" fill="#85878C" transform="matrix(1.00, 0.00, -0.00, -1.00, 86.2, 168.3)">r</text><path d="M 388.9 128.7 C 392.2 125.4 392.2 120.1 388.9 116.8 C 385.6 113.5 380.3 113.5 377.0 116.8 C 373.7 120.1 373.7 125.4 377.0 128.7 C 380.3 132.0 385.6 132.0 388.9 128.7 " fill="#2B91D9"></path><path d="M 14.4 2.5 C 17.7 5.8 17.7 11.1 14.4 14.4 C 11.1 17.7 5.8 17.7 2.5 14.4 C -0.8 11.1 -0.8 5.8 2.5 2.5 C 5.8 -0.8 11.1 -0.8 14.4 2.5 " fill="none" stroke="#2B91D9" stroke-width="1.00" transform="matrix(1.00, 0.00, 0.00, -1.00, 374.5, 131.2)"></path><text xml:space="preserve" font-family="Menlo-Regular,Menlo" font-size="5.0" fill="#E1163C" transform="matrix(1.00, 0.00, -0.00, -1.00, 275.0, 48.8)">$</text><text xml:space="preserve" font-family="Menlo-Regular,Menlo" font-size="5.0" fill="#E1163C" transform="matrix(1.00, 0.00, -0.00, -1.00, 278.0, 48.8)"> </text><text xml:space="preserve" font-family="Menlo-Regular,Menlo" font-size="5.0" fill="#E1163C" transform="matrix(1.00, 0.00, -0.00, -1.00, 281.0, 48.8)">g</text><text xml:space="preserve" font-family="Menlo-Regular,Menlo" font-size="5.0" fill="#E1163C" transform="matrix(1.00, 0.00, -0.00, -1.00, 284.0, 48.8)">i</text><text xml:space="preserve" font-family="Menlo-Regular,Menlo" font-size="5.0" fill="#E1163C" transform="matrix(1.00, 0.00, -0.00, -1.00, 287.0, 48.8)">t</text><text xml:space="preserve" font-family="Menlo-Regular,Menlo" font-size="5.0" fill="#E1163C" transform="matrix(1.00, 0.00, -0.00, -1.00, 290.0, 48.8)"> </text><text xml:space="preserve" font-family="Menlo-Regular,Menlo" font-size="5.0" fill="#E1163C" transform="matrix(1.00, 0.00, -0.00, -1.00, 293.0, 48.8)">m</text><text xml:space="preserve" font-family="Menlo-Regular,Menlo" font-size="5.0" fill="#E1163C" transform="matrix(1.00, 0.00, -0.00, -1.00, 296.0, 48.8)">e</text><text xml:space="preserve" font-family="Menlo-Regular,Menlo" font-size="5.0" fill="#E1163C" transform="matrix(1.00, 0.00, -0.00, -1.00, 299.0, 48.8)">r</text><text xml:space="preserve" font-family="Menlo-Regular,Menlo" font-size="5.0" fill="#E1163C" transform="matrix(1.00, 0.00, -0.00, -1.00, 302.0, 48.8)">g</text><text xml:space="preserve" font-family="Menlo-Regular,Menlo" font-size="5.0" fill="#E1163C" transform="matrix(1.00, 0.00, -0.00, -1.00, 305.1, 48.8)">e</text><text xml:space="preserve" font-family="Menlo-Regular,Menlo" font-size="5.0" fill="#E1163C" transform="matrix(1.00, 0.00, -0.00, -1.00, 308.1, 48.8)"> </text><text xml:space="preserve" font-family="Menlo-Regular,Menlo" font-size="5.0" fill="#E1163C" transform="matrix(1.00, 0.00, -0.00, -1.00, 311.1, 48.8)">b</text><text xml:space="preserve" font-family="Menlo-Regular,Menlo" font-size="5.0" fill="#E1163C" transform="matrix(1.00, 0.00, -0.00, -1.00, 314.1, 48.8)">o</text><text xml:space="preserve" font-family="Menlo-Regular,Menlo" font-size="5.0" fill="#E1163C" transform="matrix(1.00, 0.00, -0.00, -1.00, 317.1, 48.8)">b</text><text xml:space="preserve" font-family="Menlo-Regular,Menlo" font-size="5.0" fill="#E1163C" transform="matrix(1.00, 0.00, -0.00, -1.00, 320.1, 48.8)">/</text><text xml:space="preserve" font-family="Menlo-Regular,Menlo" font-size="5.0" fill="#E1163C" transform="matrix(1.00, 0.00, -0.00, -1.00, 323.1, 48.8)">f</text><text xml:space="preserve" font-family="Menlo-Regular,Menlo" font-size="5.0" fill="#E1163C" transform="matrix(1.00, 0.00, -0.00, -1.00, 326.1, 48.8)">b</text><path d="M 33.0 -5.4 L 30.0 -0.4 L 2.6 -0.4 C 1.1 -0.4 -0.3 1.1 -0.3 2.6 L -0.3 8.7 C -0.3 10.1 1.1 11.6 2.6 11.6 L 62.0 11.6 C 63.4 11.6 64.7 10.1 64.7 8.7 L 64.7 2.6 C 64.7 1.1 63.4 -0.4 62.0 -0.4 L 36.0 -0.4 L 33.0 -5.4 Z M 33.0 -5.4 " fill="none" stroke="#E1163C" stroke-width="0.25" transform="matrix(1.00, 0.00, 0.00, -1.00, 269.8, 56.1)"></path><path d="M 0.1 0.1 L 90.1 0.1 " fill="none" stroke="#85878C" stroke-width="3.00" stroke-dasharray="3.0, 3.0" transform="matrix(1.00, 0.00, 0.00, -1.00, 210.9, 171.6)"></path><text xml:space="preserve" font-family="Menlo-Regular,Menlo" font-size="5.0" fill="#2B91D9" transform="matrix(1.00, 0.00, -0.00, -1.00, 351.4, 141.8)">$</text><text xml:space="preserve" font-family="Menlo-Regular,Menlo" font-size="5.0" fill="#2B91D9" transform="matrix(1.00, 0.00, -0.00, -1.00, 354.4, 141.8)"> </text><text xml:space="preserve" font-family="Menlo-Regular,Menlo" font-size="5.0" fill="#2B91D9" transform="matrix(1.00, 0.00, -0.00, -1.00, 357.5, 141.8)">g</text><text xml:space="preserve" font-family="Menlo-Regular,Menlo" font-size="5.0" fill="#2B91D9" transform="matrix(1.00, 0.00, -0.00, -1.00, 360.5, 141.8)">i</text><text xml:space="preserve" font-family="Menlo-Regular,Menlo" font-size="5.0" fill="#2B91D9" transform="matrix(1.00, 0.00, -0.00, -1.00, 363.5, 141.8)">t</text><text xml:space="preserve" font-family="Menlo-Regular,Menlo" font-size="5.0" fill="#2B91D9" transform="matrix(1.00, 0.00, -0.00, -1.00, 366.5, 141.8)"> </text><text xml:space="preserve" font-family="Menlo-Regular,Menlo" font-size="5.0" fill="#2B91D9" transform="matrix(1.00, 0.00, -0.00, -1.00, 369.5, 141.8)">m</text><text xml:space="preserve" font-family="Menlo-Regular,Menlo" font-size="5.0" fill="#2B91D9" transform="matrix(1.00, 0.00, -0.00, -1.00, 372.5, 141.8)">e</text><text xml:space="preserve" font-family="Menlo-Regular,Menlo" font-size="5.0" fill="#2B91D9" transform="matrix(1.00, 0.00, -0.00, -1.00, 375.5, 141.8)">r</text><text xml:space="preserve" font-family="Menlo-Regular,Menlo" font-size="5.0" fill="#2B91D9" transform="matrix(1.00, 0.00, -0.00, -1.00, 378.5, 141.8)">g</text><text xml:space="preserve" font-family="Menlo-Regular,Menlo" font-size="5.0" fill="#2B91D9" transform="matrix(1.00, 0.00, -0.00, -1.00, 381.5, 141.8)">e</text><text xml:space="preserve" font-family="Menlo-Regular,Menlo" font-size="5.0" fill="#2B91D9" transform="matrix(1.00, 0.00, -0.00, -1.00, 384.6, 141.8)"> </text><text xml:space="preserve" font-family="Menlo-Regular,Menlo" font-size="5.0" fill="#2B91D9" transform="matrix(1.00, 0.00, -0.00, -1.00, 387.6, 141.8)">a</text><text xml:space="preserve" font-family="Menlo-Regular,Menlo" font-size="5.0" fill="#2B91D9" transform="matrix(1.00, 0.00, -0.00, -1.00, 390.6, 141.8)">l</text><text xml:space="preserve" font-family="Menlo-Regular,Menlo" font-size="5.0" fill="#2B91D9" transform="matrix(1.00, 0.00, -0.00, -1.00, 393.6, 141.8)">i</text><text xml:space="preserve" font-family="Menlo-Regular,Menlo" font-size="5.0" fill="#2B91D9" transform="matrix(1.00, 0.00, -0.00, -1.00, 396.6, 141.8)">c</text><text xml:space="preserve" font-family="Menlo-Regular,Menlo" font-size="5.0" fill="#2B91D9" transform="matrix(1.00, 0.00, -0.00, -1.00, 399.6, 141.8)">e</text><text xml:space="preserve" font-family="Menlo-Regular,Menlo" font-size="5.0" fill="#2B91D9" transform="matrix(1.00, 0.00, -0.00, -1.00, 402.6, 141.8)">/</text><text xml:space="preserve" font-family="Menlo-Regular,Menlo" font-size="5.0" fill="#2B91D9" transform="matrix(1.00, 0.00, -0.00, -1.00, 405.6, 141.8)">f</text><text xml:space="preserve" font-family="Menlo-Regular,Menlo" font-size="5.0" fill="#2B91D9" transform="matrix(1.00, 0.00, -0.00, -1.00, 408.6, 141.8)">b</text><path d="M 2.6 -0.4 C 1.1 0.0 0.2 1.1 0.2 2.6 L 0.2 8.7 C 0.2 10.1 1.1 11.6 2.6 11.6 L 29.9 11.6 L 33.0 15.8 L 36.0 11.6 L 62.0 11.6 C 63.4 11.6 64.2 10.1 64.2 8.7 L 64.2 2.6 C 64.2 1.1 63.4 -0.4 62.0 -0.4 L 2.6 -0.4 Z M 2.6 0.0 " fill="none" stroke="#2B91D9" stroke-width="0.25" transform="matrix(1.00, 0.00, 0.00, -1.00, 349.3, 149.1)"></path><path d="M 181.2 178.7 C 184.5 175.4 184.5 170.0 181.2 166.7 C 177.9 163.4 172.6 163.4 169.3 166.7 C 166.0 170.0 166.0 175.4 169.3 178.7 C 172.6 182.0 177.9 182.0 181.2 178.7 " fill="#85878C"></path><path d="M 14.4 2.5 C 17.7 5.8 17.7 11.1 14.4 14.4 C 11.1 17.7 5.8 17.7 2.5 14.4 C -0.8 11.1 -0.8 5.8 2.5 2.5 C 5.8 -0.8 11.1 -0.8 14.4 2.5 " fill="none" stroke="#85878C" stroke-width="1.00" transform="matrix(1.00, 0.00, 0.00, -1.00, 166.8, 181.2)"></path><path d="M 383.1 127.4 L 384.2 123.5 L 387.9 123.5 L 384.9 121.8 L 386.1 118.4 L 383.1 120.5 L 380.2 118.4 L 381.3 121.8 L 378.4 123.5 L 382.0 123.5 Z M 383.1 127.4 " fill="#FEFFFF"></path><path d="M 5.0 0.0 L 6.1 3.9 L 9.8 3.9 L 6.8 5.6 L 7.9 9.0 L 5.0 6.9 L 2.1 9.0 L 3.2 5.6 L 0.2 3.9 L 3.9 3.9 Z M 5.0 0.0 " fill="none" stroke="#85878C" stroke-width="0.25" transform="matrix(1.00, 0.00, 0.00, -1.00, 378.1, 127.4)"></path></g></svg>