<?xml version="1.0" encoding="UTF-8" standalone="no"?><svg xmlns="http://www.w3.org/2000/svg" xmlns:xlink="http://www.w3.org/1999/xlink" clip-rule="evenodd" stroke-miterlimit="10" viewBox="0 0 600 200"><desc>SVG generated by Keynote</desc><defs></defs><g transform="matrix(1.00, 0.00, -0.00, -1.00, 0.0, 200.0)"><path d="M 0.0 200.0 L 600.0 200.0 L 600.0 0.0 L 0.0 0.0 Z M 0.0 200.0 " fill="#FEFFFF"></path><path d="M 0.1 0.1 L 129.1 0.1 " fill="none" stroke="#85878C" stroke-width="3.00" transform="matrix(1.00, 0.00, 0.00, -1.00, 93.9, 171.6)"></path><path d="M 227.9 178.7 C 231.2 175.4 231.2 170.0 227.9 166.7 C 224.6 163.4 219.3 163.4 216.0 166.7 C 212.7 170.0 212.7 175.4 216.0 178.7 C 219.3 182.0 224.6 182.0 227.9 178.7 " fill="#85878C"></path><path d="M 14.4 2.5 C 17.7 5.8 17.7 11.1 14.4 14.4 C 11.1 17.7 5.8 17.7 2.5 14.4 C -0.8 11.1 -0.8 5.8 2.5 2.5 C 5.8 -0.8 11.1 -0.8 14.4 2.5 " fill="none" stroke="#85878C" stroke-width="1.00" transform="matrix(1.00, 0.00, 0.00, -1.00, 213.5, 181.2)"></path><path d="M 0.0 0.2 L 393.0 0.2 " fill="none" stroke="#2B91D9" stroke-width="3.00" transform="matrix(1.00, 0.00, 0.00, -1.00, 151.0, 122.7)"></path><path d="M 159.8 128.7 C 163.1 125.4 163.1 120.1 159.8 116.8 C 156.5 113.5 151.1 113.5 147.8 116.8 C 144.5 120.1 144.5 125.4 147.8 128.7 C 151.1 132.0 156.5 132.0 159.8 128.7 " fill="#2B91D9"></path><path d="M 14.4 2.5 C 17.7 5.8 17.7 11.1 14.4 14.4 C 11.1 17.7 5.8 17.7 2.5 14.4 C -0.8 11.1 -0.8 5.8 2.5 2.5 C 5.8 -0.8 11.1 -0.8 14.4 2.5 " fill="none" stroke="#2B91D9" stroke-width="1.00" transform="matrix(1.00, 0.00, 0.00, -1.00, 145.4, 131.2)"></path><path d="M 215.5 128.7 C 218.8 125.4 218.8 120.1 215.5 116.8 C 212.2 113.5 206.9 113.5 203.6 116.8 C 200.3 120.1 200.3 125.4 203.6 128.7 C 206.9 132.0 212.2 132.0 215.5 128.7 " fill="#2B91D9"></path><path d="M 14.4 2.5 C 17.7 5.8 17.7 11.1 14.4 14.4 C 11.1 17.7 5.8 17.7 2.5 14.4 C -0.8 11.1 -0.8 5.8 2.5 2.5 C 5.8 -0.8 11.1 -0.8 14.4 2.5 " fill="none" stroke="#2B91D9" stroke-width="1.00" transform="matrix(1.00, 0.00, 0.00, -1.00, 201.1, 131.2)"></path><path d="M 271.2 128.7 C 274.5 125.4 274.5 120.1 271.2 116.8 C 267.9 113.5 262.6 113.5 259.3 116.8 C 256.0 120.1 256.0 125.4 259.3 128.7 C 262.6 132.0 267.9 132.0 271.2 128.7 " fill="#2B91D9"></path><path d="M 14.4 2.5 C 17.7 5.8 17.7 11.1 14.4 14.4 C 11.1 17.7 5.8 17.7 2.5 14.4 C -0.8 11.1 -0.8 5.8 2.5 2.5 C 5.8 -0.8 11.1 -0.8 14.4 2.5 " fill="none" stroke="#2B91D9" stroke-width="1.00" transform="matrix(1.00, 0.00, 0.00, -1.00, 256.8, 131.2)"></path><path d="M 327.0 128.7 C 330.3 125.4 330.3 120.1 327.0 116.8 C 323.7 113.5 318.3 113.5 315.0 116.8 C 311.7 120.1 311.7 125.4 315.0 128.7 C 318.3 132.0 323.7 132.0 327.0 128.7 " fill="#2B91D9"></path><path d="M 14.4 2.5 C 17.7 5.8 17.7 11.1 14.4 14.4 C 11.1 17.7 5.8 17.7 2.5 14.4 C -0.8 11.1 -0.8 5.8 2.5 2.5 C 5.8 -0.8 11.1 -0.8 14.4 2.5 " fill="none" stroke="#2B91D9" stroke-width="1.00" transform="matrix(1.00, 0.00, 0.00, -1.00, 312.6, 131.2)"></path><text xml:space="preserve" font-family="AvenirNextCondensed-DemiBold,Avenir Next Condensed" font-weight="bold" font-size="14.0" fill="#2B91D9" transform="matrix(1.00, 0.00, -0.00, -1.00, 100.3, 118.9)">b</text><text xml:space="preserve" font-family="AvenirNextCondensed-DemiBold,Avenir Next Condensed" font-weight="bold" font-size="14.0" fill="#2B91D9" transform="matrix(1.00, 0.00, -0.00, -1.00, 107.3, 118.9)">o</text><text xml:space="preserve" font-family="AvenirNextCondensed-DemiBold,Avenir Next Condensed" font-weight="bold" font-size="14.0" fill="#2B91D9" transform="matrix(1.00, 0.00, -0.00, -1.00, 113.8, 118.9)">b</text><text xml:space="preserve" font-family="AvenirNextCondensed-DemiBold,Avenir Next Condensed" font-weight="bold" font-size="14.0" fill="#2B91D9" transform="matrix(1.00, 0.00, -0.00, -1.00, 120.8, 118.9)">/</text><text xml:space="preserve" font-family="AvenirNextCondensed-DemiBold,Avenir Next Condensed" font-weight="bold" font-size="14.0" fill="#2B91D9" transform="matrix(1.00, 0.00, -0.00, -1.00, 124.5, 118.9)">f</text><text xml:space="preserve" font-family="AvenirNextCondensed-DemiBold,Avenir Next Condensed" font-weight="bold" font-size="14.0" fill="#2B91D9" transform="matrix(1.00, 0.00, -0.00, -1.00, 128.2, 118.9)">b</text><path d="M 0.0 0.0 L 34.3 43.3 " fill="none" stroke="#2B91D9" stroke-width="3.00" transform="matrix(0.98, -0.19, -0.19, -0.98, 131.2, 170.1)"></path><path d="M 134.6 178.7 C 137.9 175.4 137.9 170.0 134.6 166.7 C 131.3 163.4 125.9 163.4 122.6 166.7 C 119.3 170.0 119.3 175.4 122.6 178.7 C 125.9 182.0 131.3 182.0 134.6 178.7 " fill="#85878C"></path><path d="M 14.4 2.5 C 17.7 5.8 17.7 11.1 14.4 14.4 C 11.1 17.7 5.8 17.7 2.5 14.4 C -0.8 11.1 -0.8 5.8 2.5 2.5 C 5.8 -0.8 11.1 -0.8 14.4 2.5 " fill="none" stroke="#85878C" stroke-width="1.00" transform="matrix(1.00, 0.00, 0.00, -1.00, 120.1, 181.2)"></path><text xml:space="preserve" font-family="AvenirNextCondensed-DemiBold,Avenir Next Condensed" font-weight="bold" font-size="14.0" fill="#85878C" transform="matrix(1.00, 0.00, -0.00, -1.00, 54.0, 168.3)">m</text><text xml:space="preserve" font-family="AvenirNextCondensed-DemiBold,Avenir Next Condensed" font-weight="bold" font-size="14.0" fill="#85878C" transform="matrix(1.00, 0.00, -0.00, -1.00, 64.6, 168.3)">a</text><text xml:space="preserve" font-family="AvenirNextCondensed-DemiBold,Avenir Next Condensed" font-weight="bold" font-size="14.0" fill="#85878C" transform="matrix(1.00, 0.00, -0.00, -1.00, 70.7, 168.3)">s</text><text xml:space="preserve" font-family="AvenirNextCondensed-DemiBold,Avenir Next Condensed" font-weight="bold" font-size="14.0" fill="#85878C" transform="matrix(1.00, 0.00, -0.00, -1.00, 75.9, 168.3)">t</text><text xml:space="preserve" font-family="AvenirNextCondensed-DemiBold,Avenir Next Condensed" font-weight="bold" font-size="14.0" fill="#85878C" transform="matrix(1.00, 0.00, -0.00, -1.00, 79.9, 168.3)">e</text><text xml:space="preserve" font-family="AvenirNextCondensed-DemiBold,Avenir Next Condensed" font-weight="bold" font-size="14.0" fill="#85878C" transform="matrix(1.00, 0.00, -0.00, -1.00, 86.2, 168.3)">r</text><path d="M 382.7 128.7 C 386.0 125.4 386.0 120.1 382.7 116.8 C 379.4 113.5 374.1 113.5 370.8 116.8 C 367.5 120.1 367.5 125.4 370.8 128.7 C 374.1 132.0 379.4 132.0 382.7 128.7 " fill="#E1163C"></path><path d="M 14.4 2.5 C 17.7 5.8 17.7 11.1 14.4 14.4 C 11.1 17.7 5.8 17.7 2.5 14.4 C -0.8 11.1 -0.8 5.8 2.5 2.5 C 5.8 -0.8 11.1 -0.8 14.4 2.5 " fill="none" stroke="#E1163C" stroke-width="1.00" transform="matrix(1.00, 0.00, 0.00, -1.00, 368.3, 131.2)"></path><path d="M 0.1 0.1 L 90.1 0.1 " fill="none" stroke="#85878C" stroke-width="3.00" stroke-dasharray="3.0, 3.0" transform="matrix(1.00, 0.00, 0.00, -1.00, 210.9, 171.6)"></path><path d="M 181.2 178.7 C 184.5 175.4 184.5 170.0 181.2 166.7 C 177.9 163.4 172.6 163.4 169.3 166.7 C 166.0 170.0 166.0 175.4 169.3 178.7 C 172.6 182.0 177.9 182.0 181.2 178.7 " fill="#85878C"></path><path d="M 14.4 2.5 C 17.7 5.8 17.7 11.1 14.4 14.4 C 11.1 17.7 5.8 17.7 2.5 14.4 C -0.8 11.1 -0.8 5.8 2.5 2.5 C 5.8 -0.8 11.1 -0.8 14.4 2.5 " fill="none" stroke="#85878C" stroke-width="1.00" transform="matrix(1.00, 0.00, 0.00, -1.00, 166.8, 181.2)"></path><path d="M 438.4 129.3 C 441.7 126.0 441.7 120.6 438.4 117.3 C 435.1 114.0 429.8 114.0 426.5 117.3 C 423.2 120.6 423.2 126.0 426.5 129.3 C 429.8 132.6 435.1 132.6 438.4 129.3 " fill="#E1163C"></path><path d="M 14.4 2.5 C 17.7 5.8 17.7 11.1 14.4 14.4 C 11.1 17.7 5.8 17.7 2.5 14.4 C -0.8 11.1 -0.8 5.8 2.5 2.5 C 5.8 -0.8 11.1 -0.8 14.4 2.5 " fill="none" stroke="#E1163C" stroke-width="1.00" transform="matrix(1.00, 0.00, 0.00, -1.00, 424.0, 131.7)"></path><path d="M 494.2 129.3 C 497.5 126.0 497.5 120.6 494.2 117.3 C 490.9 114.0 485.5 114.0 482.2 117.3 C 478.9 120.6 478.9 126.0 482.2 129.3 C 485.5 132.6 490.9 132.6 494.2 129.3 " fill="#E1163C"></path><path d="M 14.4 2.5 C 17.7 5.8 17.7 11.1 14.4 14.4 C 11.1 17.7 5.8 17.7 2.5 14.4 C -0.8 11.1 -0.8 5.8 2.5 2.5 C 5.8 -0.8 11.1 -0.8 14.4 2.5 " fill="none" stroke="#E1163C" stroke-width="1.00" transform="matrix(1.00, 0.00, 0.00, -1.00, 479.7, 131.7)"></path><path d="M 549.9 129.3 C 553.2 126.0 553.2 120.6 549.9 117.3 C 546.6 114.0 541.2 114.0 537.9 117.3 C 534.6 120.6 534.6 126.0 537.9 129.3 C 541.2 132.6 546.6 132.6 549.9 129.3 " fill="#2B91D9"></path><path d="M 14.4 2.5 C 17.7 5.8 17.7 11.1 14.4 14.4 C 11.1 17.7 5.8 17.7 2.5 14.4 C -0.8 11.1 -0.8 5.8 2.5 2.5 C 5.8 -0.8 11.1 -0.8 14.4 2.5 " fill="none" stroke="#2B91D9" stroke-width="1.00" transform="matrix(1.00, 0.00, 0.00, -1.00, 535.5, 131.7)"></path><text xml:space="preserve" font-family="AvenirNextCondensed-DemiBold,Avenir Next Condensed" font-weight="bold" font-size="12.0" fill="#E1163C" transform="matrix(1.00, 0.00, -0.00, -1.00, 415.9, 94.0)">a</text><text xml:space="preserve" font-family="AvenirNextCondensed-DemiBold,Avenir Next Condensed" font-weight="bold" font-size="12.0" fill="#E1163C" transform="matrix(1.00, 0.00, -0.00, -1.00, 421.1, 94.0)">l</text><text xml:space="preserve" font-family="AvenirNextCondensed-DemiBold,Avenir Next Condensed" font-weight="bold" font-size="12.0" fill="#E1163C" transform="matrix(1.00, 0.00, -0.00, -1.00, 424.1, 94.0)">i</text><text xml:space="preserve" font-family="AvenirNextCondensed-DemiBold,Avenir Next Condensed" font-weight="bold" font-size="12.0" fill="#E1163C" transform="matrix(1.00, 0.00, -0.00, -1.00, 427.1, 94.0)">c</text><text xml:space="preserve" font-family="AvenirNextCondensed-DemiBold,Avenir Next Condensed" font-weight="bold" font-size="12.0" fill="#E1163C" transform="matrix(1.00, 0.00, -0.00, -1.00, 431.3, 94.0)">e</text><text xml:space="preserve" font-family="AvenirNextCondensed-DemiBold,Avenir Next Condensed" font-weight="bold" font-size="12.0" fill="#E1163C" transform="matrix(1.00, 0.00, -0.00, -1.00, 436.7, 94.0)">/</text><text xml:space="preserve" font-family="AvenirNextCondensed-DemiBold,Avenir Next Condensed" font-weight="bold" font-size="12.0" fill="#E1163C" transform="matrix(1.00, 0.00, -0.00, -1.00, 439.8, 94.0)">f</text><text xml:space="preserve" font-family="AvenirNextCondensed-DemiBold,Avenir Next Condensed" font-weight="bold" font-size="12.0" fill="#E1163C" transform="matrix(1.00, 0.00, -0.00, -1.00, 443.0, 94.0)">b</text><text xml:space="preserve" font-family="AvenirNextCondensed-DemiBold,Avenir Next Condensed" font-weight="bold" font-size="14.0" fill="#2B91D9" transform="matrix(1.00, 0.00, -0.00, -1.00, 100.2, 95.6)">b</text><text xml:space="preserve" font-family="AvenirNextCondensed-DemiBold,Avenir Next Condensed" font-weight="bold" font-size="14.0" fill="#2B91D9" transform="matrix(1.00, 0.00, -0.00, -1.00, 107.1, 95.6)">o</text><text xml:space="preserve" font-family="AvenirNextCondensed-DemiBold,Avenir Next Condensed" font-weight="bold" font-size="14.0" fill="#2B91D9" transform="matrix(1.00, 0.00, -0.00, -1.00, 113.7, 95.6)">b</text><text xml:space="preserve" font-family="AvenirNextCondensed-DemiBold,Avenir Next Condensed" font-weight="bold" font-size="14.0" fill="#2B91D9" transform="matrix(1.00, 0.00, -0.00, -1.00, 120.7, 95.6)">/</text><text xml:space="preserve" font-family="AvenirNextCondensed-DemiBold,Avenir Next Condensed" font-weight="bold" font-size="14.0" fill="#2B91D9" transform="matrix(1.00, 0.00, -0.00, -1.00, 124.3, 95.6)">r</text><text xml:space="preserve" font-family="AvenirNextCondensed-DemiBold,Avenir Next Condensed" font-weight="bold" font-size="14.0" fill="#2B91D9" transform="matrix(1.00, 0.00, -0.00, -1.00, 128.5, 95.6)">e</text><text xml:space="preserve" font-family="AvenirNextCondensed-DemiBold,Avenir Next Condensed" font-weight="bold" font-size="14.0" fill="#2B91D9" transform="matrix(1.00, 0.00, -0.00, -1.00, 134.8, 95.6)">v</text><text xml:space="preserve" font-family="AvenirNextCondensed-DemiBold,Avenir Next Condensed" font-weight="bold" font-size="14.0" fill="#2B91D9" transform="matrix(1.00, 0.00, -0.00, -1.00, 140.8, 95.6)">i</text><text xml:space="preserve" font-family="AvenirNextCondensed-DemiBold,Avenir Next Condensed" font-weight="bold" font-size="14.0" fill="#2B91D9" transform="matrix(1.00, 0.00, -0.00, -1.00, 144.2, 95.6)">e</text><text xml:space="preserve" font-family="AvenirNextCondensed-DemiBold,Avenir Next Condensed" font-weight="bold" font-size="14.0" fill="#2B91D9" transform="matrix(1.00, 0.00, -0.00, -1.00, 150.5, 95.6)">w</text><path d="M 0.4 0.2 L 129.4 0.2 " fill="none" stroke="#E1163C" stroke-width="3.00" transform="matrix(1.00, 0.00, 0.00, -1.00, 367.6, 122.7)"></path></g></svg>