<?xml version="1.0" encoding="UTF-8" standalone="no"?><svg xmlns="http://www.w3.org/2000/svg" xmlns:xlink="http://www.w3.org/1999/xlink" clip-rule="evenodd" stroke-miterlimit="10" viewBox="0 0 600 200"><desc>SVG generated by Keynote</desc><defs></defs><g transform="matrix(1.00, 0.00, -0.00, -1.00, 0.0, 200.0)"><path d="M 0.0 200.0 L 600.0 200.0 L 600.0 0.0 L 0.0 0.0 Z M 0.0 200.0 " fill="#FEFFFF"></path><path d="M -0.2 0.5 L 26.8 0.5 " fill="none" stroke="#2B91D9" stroke-width="3.00" transform="matrix(1.00, 0.00, 0.00, -1.00, 199.2, 85.0)"></path><path d="M 0.1 0.1 L 129.1 0.1 " fill="none" stroke="#85878C" stroke-width="3.00" transform="matrix(1.00, 0.00, 0.00, -1.00, 93.9, 171.6)"></path><path d="M 227.9 178.7 C 231.2 175.4 231.2 170.0 227.9 166.7 C 224.6 163.4 219.3 163.4 216.0 166.7 C 212.7 170.0 212.7 175.4 216.0 178.7 C 219.3 182.0 224.6 182.0 227.9 178.7 " fill="#85878C"></path><path d="M 14.4 2.5 C 17.7 5.8 17.7 11.1 14.4 14.4 C 11.1 17.7 5.8 17.7 2.5 14.4 C -0.8 11.1 -0.8 5.8 2.5 2.5 C 5.8 -0.8 11.1 -0.8 14.4 2.5 " fill="none" stroke="#85878C" stroke-width="1.00" transform="matrix(1.00, 0.00, 0.00, -1.00, 213.5, 181.2)"></path><path d="M 229.9 91.0 C 233.2 87.7 233.2 82.3 229.9 79.0 C 226.6 75.7 221.3 75.7 218.0 79.0 C 214.7 82.3 214.7 87.7 218.0 91.0 C 221.3 94.3 226.6 94.3 229.9 91.0 " fill="#2B91D9"></path><path d="M 14.4 2.5 C 17.7 5.8 17.7 11.1 14.4 14.4 C 11.1 17.7 5.8 17.7 2.5 14.4 C -0.8 11.1 -0.8 5.8 2.5 2.5 C 5.8 -0.8 11.1 -0.8 14.4 2.5 " fill="none" stroke="#2B91D9" stroke-width="1.00" transform="matrix(1.00, 0.00, 0.00, -1.00, 215.5, 93.4)"></path><path d="M 0.0 0.0 L 58.3 73.8 " fill="none" stroke="#2B91D9" stroke-width="3.00" transform="matrix(0.93, -0.37, -0.37, -0.93, 174.1, 174.5)"></path><path d="M 134.6 178.7 C 137.9 175.4 137.9 170.0 134.6 166.7 C 131.3 163.4 125.9 163.4 122.6 166.7 C 119.3 170.0 119.3 175.4 122.6 178.7 C 125.9 182.0 131.3 182.0 134.6 178.7 " fill="#85878C"></path><path d="M 14.4 2.5 C 17.7 5.8 17.7 11.1 14.4 14.4 C 11.1 17.7 5.8 17.7 2.5 14.4 C -0.8 11.1 -0.8 5.8 2.5 2.5 C 5.8 -0.8 11.1 -0.8 14.4 2.5 " fill="none" stroke="#85878C" stroke-width="1.00" transform="matrix(1.00, 0.00, 0.00, -1.00, 120.1, 181.2)"></path><path d="M 229.4 136.8 C 232.7 133.5 232.7 128.1 229.4 124.8 C 226.1 121.5 220.8 121.5 217.5 124.8 C 214.2 128.1 214.2 133.5 217.5 136.8 C 220.8 140.1 226.1 140.1 229.4 136.8 " fill="#E1163C"></path><path d="M 14.4 2.5 C 17.7 5.8 17.7 11.1 14.4 14.4 C 11.1 17.7 5.8 17.7 2.5 14.4 C -0.8 11.1 -0.8 5.8 2.5 2.5 C 5.8 -0.8 11.1 -0.8 14.4 2.5 " fill="none" stroke="#E1163C" stroke-width="1.00" transform="matrix(1.00, 0.00, 0.00, -1.00, 215.0, 139.2)"></path><path d="M 336.7 136.5 C 340.0 133.2 340.0 127.9 336.7 124.6 C 333.4 121.3 328.1 121.3 324.8 124.6 C 321.5 127.9 321.5 133.2 324.8 136.5 C 328.1 139.8 333.4 139.8 336.7 136.5 " fill="#E1163C"></path><path d="M 14.4 2.5 C 17.7 5.8 17.7 11.1 14.4 14.4 C 11.1 17.7 5.8 17.7 2.5 14.4 C -0.8 11.1 -0.8 5.8 2.5 2.5 C 5.8 -0.8 11.1 -0.8 14.4 2.5 " fill="none" stroke="#E1163C" stroke-width="1.00" transform="matrix(1.00, 0.00, 0.00, -1.00, 322.3, 139.0)"></path><path d="M 0.0 0.0 L 17.7 50.7 " fill="none" stroke="#E1163C" stroke-width="3.00" transform="matrix(1.00, 0.08, 0.08, -1.00, 174.2, 177.3)"></path><path d="M 283.4 136.8 C 286.7 133.5 286.7 128.1 283.4 124.8 C 280.1 121.5 274.8 121.5 271.5 124.8 C 268.2 128.1 268.2 133.5 271.5 136.8 C 274.8 140.1 280.1 140.1 283.4 136.8 " fill="#E1163C"></path><path d="M 14.4 2.5 C 17.7 5.8 17.7 11.1 14.4 14.4 C 11.1 17.7 5.8 17.7 2.5 14.4 C -0.8 11.1 -0.8 5.8 2.5 2.5 C 5.8 -0.8 11.1 -0.8 14.4 2.5 " fill="none" stroke="#E1163C" stroke-width="1.00" transform="matrix(1.00, 0.00, 0.00, -1.00, 269.0, 139.2)"></path><path d="M 0.1 -0.2 L 129.1 -0.2 " fill="none" stroke="#E1163C" stroke-width="3.00" transform="matrix(1.00, 0.00, 0.00, -1.00, 194.9, 129.3)"></path><text xml:space="preserve" font-family="AvenirNextCondensed-DemiBold,Avenir Next Condensed" font-weight="bold" font-size="14.0" fill="#85878C" transform="matrix(1.00, 0.00, -0.00, -1.00, 54.0, 168.3)">m</text><text xml:space="preserve" font-family="AvenirNextCondensed-DemiBold,Avenir Next Condensed" font-weight="bold" font-size="14.0" fill="#85878C" transform="matrix(1.00, 0.00, -0.00, -1.00, 64.6, 168.3)">a</text><text xml:space="preserve" font-family="AvenirNextCondensed-DemiBold,Avenir Next Condensed" font-weight="bold" font-size="14.0" fill="#85878C" transform="matrix(1.00, 0.00, -0.00, -1.00, 70.7, 168.3)">s</text><text xml:space="preserve" font-family="AvenirNextCondensed-DemiBold,Avenir Next Condensed" font-weight="bold" font-size="14.0" fill="#85878C" transform="matrix(1.00, 0.00, -0.00, -1.00, 75.9, 168.3)">t</text><text xml:space="preserve" font-family="AvenirNextCondensed-DemiBold,Avenir Next Condensed" font-weight="bold" font-size="14.0" fill="#85878C" transform="matrix(1.00, 0.00, -0.00, -1.00, 79.9, 168.3)">e</text><text xml:space="preserve" font-family="AvenirNextCondensed-DemiBold,Avenir Next Condensed" font-weight="bold" font-size="14.0" fill="#85878C" transform="matrix(1.00, 0.00, -0.00, -1.00, 86.2, 168.3)">r</text><path d="M 0.1 0.1 L 90.1 0.1 " fill="none" stroke="#85878C" stroke-width="3.00" stroke-dasharray="3.0, 3.0" transform="matrix(1.00, 0.00, 0.00, -1.00, 210.9, 171.6)"></path><path d="M 181.2 178.7 C 184.5 175.4 184.5 170.0 181.2 166.7 C 177.9 163.4 172.6 163.4 169.3 166.7 C 166.0 170.0 166.0 175.4 169.3 178.7 C 172.6 182.0 177.9 182.0 181.2 178.7 " fill="#85878C"></path><path d="M 14.4 2.5 C 17.7 5.8 17.7 11.1 14.4 14.4 C 11.1 17.7 5.8 17.7 2.5 14.4 C -0.8 11.1 -0.8 5.8 2.5 2.5 C 5.8 -0.8 11.1 -0.8 14.4 2.5 " fill="none" stroke="#85878C" stroke-width="1.00" transform="matrix(1.00, 0.00, 0.00, -1.00, 166.8, 181.2)"></path><text xml:space="preserve" font-family="AvenirNextCondensed-DemiBold,Avenir Next Condensed" font-weight="bold" font-size="14.0" fill="#E1163C" transform="matrix(1.00, 0.00, -0.00, -1.00, 369.3, 126.4)">a</text><text xml:space="preserve" font-family="AvenirNextCondensed-DemiBold,Avenir Next Condensed" font-weight="bold" font-size="14.0" fill="#E1163C" transform="matrix(1.00, 0.00, -0.00, -1.00, 375.4, 126.4)">l</text><text xml:space="preserve" font-family="AvenirNextCondensed-DemiBold,Avenir Next Condensed" font-weight="bold" font-size="14.0" fill="#E1163C" transform="matrix(1.00, 0.00, -0.00, -1.00, 378.9, 126.4)">i</text><text xml:space="preserve" font-family="AvenirNextCondensed-DemiBold,Avenir Next Condensed" font-weight="bold" font-size="14.0" fill="#E1163C" transform="matrix(1.00, 0.00, -0.00, -1.00, 382.4, 126.4)">c</text><text xml:space="preserve" font-family="AvenirNextCondensed-DemiBold,Avenir Next Condensed" font-weight="bold" font-size="14.0" fill="#E1163C" transform="matrix(1.00, 0.00, -0.00, -1.00, 387.3, 126.4)">e</text><text xml:space="preserve" font-family="AvenirNextCondensed-DemiBold,Avenir Next Condensed" font-weight="bold" font-size="14.0" fill="#E1163C" transform="matrix(1.00, 0.00, -0.00, -1.00, 393.6, 126.4)">/</text><text xml:space="preserve" font-family="AvenirNextCondensed-DemiBold,Avenir Next Condensed" font-weight="bold" font-size="14.0" fill="#E1163C" transform="matrix(1.00, 0.00, -0.00, -1.00, 397.2, 126.4)">f</text><text xml:space="preserve" font-family="AvenirNextCondensed-DemiBold,Avenir Next Condensed" font-weight="bold" font-size="14.0" fill="#E1163C" transform="matrix(1.00, 0.00, -0.00, -1.00, 401.0, 126.4)">b</text><text xml:space="preserve" font-family="AvenirNextCondensed-DemiBold,Avenir Next Condensed" font-weight="bold" font-size="14.0" fill="#2B91D9" transform="matrix(1.00, 0.00, -0.00, -1.00, 117.2, 80.6)">b</text><text xml:space="preserve" font-family="AvenirNextCondensed-DemiBold,Avenir Next Condensed" font-weight="bold" font-size="14.0" fill="#2B91D9" transform="matrix(1.00, 0.00, -0.00, -1.00, 124.1, 80.6)">o</text><text xml:space="preserve" font-family="AvenirNextCondensed-DemiBold,Avenir Next Condensed" font-weight="bold" font-size="14.0" fill="#2B91D9" transform="matrix(1.00, 0.00, -0.00, -1.00, 130.7, 80.6)">b</text><text xml:space="preserve" font-family="AvenirNextCondensed-DemiBold,Avenir Next Condensed" font-weight="bold" font-size="14.0" fill="#2B91D9" transform="matrix(1.00, 0.00, -0.00, -1.00, 137.7, 80.6)">/</text><text xml:space="preserve" font-family="AvenirNextCondensed-DemiBold,Avenir Next Condensed" font-weight="bold" font-size="14.0" fill="#2B91D9" transform="matrix(1.00, 0.00, -0.00, -1.00, 141.3, 80.6)">r</text><text xml:space="preserve" font-family="AvenirNextCondensed-DemiBold,Avenir Next Condensed" font-weight="bold" font-size="14.0" fill="#2B91D9" transform="matrix(1.00, 0.00, -0.00, -1.00, 145.5, 80.6)">e</text><text xml:space="preserve" font-family="AvenirNextCondensed-DemiBold,Avenir Next Condensed" font-weight="bold" font-size="14.0" fill="#2B91D9" transform="matrix(1.00, 0.00, -0.00, -1.00, 151.8, 80.6)">v</text><text xml:space="preserve" font-family="AvenirNextCondensed-DemiBold,Avenir Next Condensed" font-weight="bold" font-size="14.0" fill="#2B91D9" transform="matrix(1.00, 0.00, -0.00, -1.00, 157.8, 80.6)">i</text><text xml:space="preserve" font-family="AvenirNextCondensed-DemiBold,Avenir Next Condensed" font-weight="bold" font-size="14.0" fill="#2B91D9" transform="matrix(1.00, 0.00, -0.00, -1.00, 161.2, 80.6)">e</text><text xml:space="preserve" font-family="AvenirNextCondensed-DemiBold,Avenir Next Condensed" font-weight="bold" font-size="14.0" fill="#2B91D9" transform="matrix(1.00, 0.00, -0.00, -1.00, 167.5, 80.6)">w</text></g></svg>