<?xml version="1.0" encoding="UTF-8" standalone="no"?><svg xmlns="http://www.w3.org/2000/svg" xmlns:xlink="http://www.w3.org/1999/xlink" clip-rule="evenodd" stroke-miterlimit="10" viewBox="0 0 600 200"><desc>SVG generated by Keynote</desc><defs></defs><g transform="matrix(1.00, 0.00, -0.00, -1.00, 0.0, 200.0)"><path d="M 0.0 200.0 L 600.0 200.0 L 600.0 0.0 L 0.0 0.0 Z M 0.0 200.0 " fill="#FEFFFF"></path><path d="M 0.1 0.1 L 129.1 0.1 " fill="none" stroke="#85878C" stroke-width="3.00" transform="matrix(1.00, 0.00, 0.00, -1.00, 93.9, 171.6)"></path><path d="M 227.9 178.7 C 231.2 175.4 231.2 170.0 227.9 166.7 C 224.6 163.4 219.3 163.4 216.0 166.7 C 212.7 170.0 212.7 175.4 216.0 178.7 C 219.3 182.0 224.6 182.0 227.9 178.7 " fill="#85878C"></path><path d="M 14.4 2.5 C 17.7 5.8 17.7 11.1 14.4 14.4 C 11.1 17.7 5.8 17.7 2.5 14.4 C -0.8 11.1 -0.8 5.8 2.5 2.5 C 5.8 -0.8 11.1 -0.8 14.4 2.5 " fill="none" stroke="#85878C" stroke-width="1.00" transform="matrix(1.00, 0.00, 0.00, -1.00, 213.5, 181.2)"></path><path d="M 0.5 0.2 L 235.5 0.2 " fill="none" stroke="#2B91D9" stroke-width="3.00" transform="matrix(1.00, 0.00, 0.00, -1.00, 348.5, 84.7)"></path><path d="M 357.3 90.7 C 360.6 87.4 360.6 82.1 357.3 78.8 C 354.0 75.5 348.6 75.5 345.3 78.8 C 342.0 82.1 342.0 87.4 345.3 90.7 C 348.6 94.0 354.0 94.0 357.3 90.7 " fill="#2B91D9"></path><path d="M 14.4 2.5 C 17.7 5.8 17.7 11.1 14.4 14.4 C 11.1 17.7 5.8 17.7 2.5 14.4 C -0.8 11.1 -0.8 5.8 2.5 2.5 C 5.8 -0.8 11.1 -0.8 14.4 2.5 " fill="none" stroke="#2B91D9" stroke-width="1.00" transform="matrix(1.00, 0.00, 0.00, -1.00, 342.9, 93.2)"></path><path d="M 414.6 90.7 C 417.9 87.4 417.9 82.1 414.6 78.8 C 411.3 75.5 405.9 75.5 402.6 78.8 C 399.3 82.1 399.3 87.4 402.6 90.7 C 405.9 94.0 411.3 94.0 414.6 90.7 " fill="#2B91D9"></path><path d="M 14.4 2.5 C 17.7 5.8 17.7 11.1 14.4 14.4 C 11.1 17.7 5.8 17.7 2.5 14.4 C -0.8 11.1 -0.8 5.8 2.5 2.5 C 5.8 -0.8 11.1 -0.8 14.4 2.5 " fill="none" stroke="#2B91D9" stroke-width="1.00" transform="matrix(1.00, 0.00, 0.00, -1.00, 400.1, 93.2)"></path><path d="M 471.8 90.7 C 475.1 87.4 475.1 82.1 471.8 78.8 C 468.5 75.5 463.2 75.5 459.9 78.8 C 456.6 82.1 456.6 87.4 459.9 90.7 C 463.2 94.0 468.5 94.0 471.8 90.7 " fill="#2B91D9"></path><path d="M 14.4 2.5 C 17.7 5.8 17.7 11.1 14.4 14.4 C 11.1 17.7 5.8 17.7 2.5 14.4 C -0.8 11.1 -0.8 5.8 2.5 2.5 C 5.8 -0.8 11.1 -0.8 14.4 2.5 " fill="none" stroke="#2B91D9" stroke-width="1.00" transform="matrix(1.00, 0.00, 0.00, -1.00, 457.4, 93.2)"></path><path d="M 529.1 90.7 C 532.4 87.4 532.4 82.1 529.1 78.8 C 525.8 75.5 520.5 75.5 517.2 78.8 C 513.9 82.1 513.9 87.4 517.2 90.7 C 520.5 94.0 525.8 94.0 529.1 90.7 " fill="#2B91D9"></path><path d="M 14.4 2.5 C 17.7 5.8 17.7 11.1 14.4 14.4 C 11.1 17.7 5.8 17.7 2.5 14.4 C -0.8 11.1 -0.8 5.8 2.5 2.5 C 5.8 -0.8 11.1 -0.8 14.4 2.5 " fill="none" stroke="#2B91D9" stroke-width="1.00" transform="matrix(1.00, 0.00, 0.00, -1.00, 514.7, 93.2)"></path><text xml:space="preserve" font-family="AvenirNextCondensed-DemiBold,Avenir Next Condensed" font-weight="bold" font-size="14.0" fill="#2B91D9" transform="matrix(1.00, 0.00, -0.00, -1.00, 264.7, 80.4)">b</text><text xml:space="preserve" font-family="AvenirNextCondensed-DemiBold,Avenir Next Condensed" font-weight="bold" font-size="14.0" fill="#2B91D9" transform="matrix(1.00, 0.00, -0.00, -1.00, 271.6, 80.4)">o</text><text xml:space="preserve" font-family="AvenirNextCondensed-DemiBold,Avenir Next Condensed" font-weight="bold" font-size="14.0" fill="#2B91D9" transform="matrix(1.00, 0.00, -0.00, -1.00, 278.2, 80.4)">b</text><text xml:space="preserve" font-family="AvenirNextCondensed-DemiBold,Avenir Next Condensed" font-weight="bold" font-size="14.0" fill="#2B91D9" transform="matrix(1.00, 0.00, -0.00, -1.00, 285.2, 80.4)">/</text><text xml:space="preserve" font-family="AvenirNextCondensed-DemiBold,Avenir Next Condensed" font-weight="bold" font-size="14.0" fill="#2B91D9" transform="matrix(1.00, 0.00, -0.00, -1.00, 288.8, 80.4)">r</text><text xml:space="preserve" font-family="AvenirNextCondensed-DemiBold,Avenir Next Condensed" font-weight="bold" font-size="14.0" fill="#2B91D9" transform="matrix(1.00, 0.00, -0.00, -1.00, 293.0, 80.4)">e</text><text xml:space="preserve" font-family="AvenirNextCondensed-DemiBold,Avenir Next Condensed" font-weight="bold" font-size="14.0" fill="#2B91D9" transform="matrix(1.00, 0.00, -0.00, -1.00, 299.3, 80.4)">v</text><text xml:space="preserve" font-family="AvenirNextCondensed-DemiBold,Avenir Next Condensed" font-weight="bold" font-size="14.0" fill="#2B91D9" transform="matrix(1.00, 0.00, -0.00, -1.00, 305.3, 80.4)">i</text><text xml:space="preserve" font-family="AvenirNextCondensed-DemiBold,Avenir Next Condensed" font-weight="bold" font-size="14.0" fill="#2B91D9" transform="matrix(1.00, 0.00, -0.00, -1.00, 308.7, 80.4)">e</text><text xml:space="preserve" font-family="AvenirNextCondensed-DemiBold,Avenir Next Condensed" font-weight="bold" font-size="14.0" fill="#2B91D9" transform="matrix(1.00, 0.00, -0.00, -1.00, 315.0, 80.4)">w</text><text xml:space="preserve" font-family="AvenirNextCondensed-DemiBold,Avenir Next Condensed" font-weight="bold" font-size="14.0" fill="#E1163C" transform="matrix(1.00, 0.00, -0.00, -1.00, 143.1, 124.7)">a</text><text xml:space="preserve" font-family="AvenirNextCondensed-DemiBold,Avenir Next Condensed" font-weight="bold" font-size="14.0" fill="#E1163C" transform="matrix(1.00, 0.00, -0.00, -1.00, 149.2, 124.7)">l</text><text xml:space="preserve" font-family="AvenirNextCondensed-DemiBold,Avenir Next Condensed" font-weight="bold" font-size="14.0" fill="#E1163C" transform="matrix(1.00, 0.00, -0.00, -1.00, 152.7, 124.7)">i</text><text xml:space="preserve" font-family="AvenirNextCondensed-DemiBold,Avenir Next Condensed" font-weight="bold" font-size="14.0" fill="#E1163C" transform="matrix(1.00, 0.00, -0.00, -1.00, 156.2, 124.7)">c</text><text xml:space="preserve" font-family="AvenirNextCondensed-DemiBold,Avenir Next Condensed" font-weight="bold" font-size="14.0" fill="#E1163C" transform="matrix(1.00, 0.00, -0.00, -1.00, 161.1, 124.7)">e</text><text xml:space="preserve" font-family="AvenirNextCondensed-DemiBold,Avenir Next Condensed" font-weight="bold" font-size="14.0" fill="#E1163C" transform="matrix(1.00, 0.00, -0.00, -1.00, 167.3, 124.7)">/</text><text xml:space="preserve" font-family="AvenirNextCondensed-DemiBold,Avenir Next Condensed" font-weight="bold" font-size="14.0" fill="#E1163C" transform="matrix(1.00, 0.00, -0.00, -1.00, 171.0, 124.7)">f</text><text xml:space="preserve" font-family="AvenirNextCondensed-DemiBold,Avenir Next Condensed" font-weight="bold" font-size="14.0" fill="#E1163C" transform="matrix(1.00, 0.00, -0.00, -1.00, 174.8, 124.7)">b</text><path d="M 0.0 0.0 L 34.3 43.3 " fill="none" stroke="#2B91D9" stroke-width="3.00" transform="matrix(0.98, -0.19, -0.19, -0.98, 328.7, 132.1)"></path><path d="M 134.6 178.7 C 137.9 175.4 137.9 170.0 134.6 166.7 C 131.3 163.4 125.9 163.4 122.6 166.7 C 119.3 170.0 119.3 175.4 122.6 178.7 C 125.9 182.0 131.3 182.0 134.6 178.7 " fill="#85878C"></path><path d="M 14.4 2.5 C 17.7 5.8 17.7 11.1 14.4 14.4 C 11.1 17.7 5.8 17.7 2.5 14.4 C -0.8 11.1 -0.8 5.8 2.5 2.5 C 5.8 -0.8 11.1 -0.8 14.4 2.5 " fill="none" stroke="#85878C" stroke-width="1.00" transform="matrix(1.00, 0.00, 0.00, -1.00, 120.1, 181.2)"></path><path d="M 229.4 136.8 C 232.7 133.5 232.7 128.1 229.4 124.8 C 226.1 121.5 220.8 121.5 217.5 124.8 C 214.2 128.1 214.2 133.5 217.5 136.8 C 220.8 140.1 226.1 140.1 229.4 136.8 " fill="#E1163C"></path><path d="M 14.4 2.5 C 17.7 5.8 17.7 11.1 14.4 14.4 C 11.1 17.7 5.8 17.7 2.5 14.4 C -0.8 11.1 -0.8 5.8 2.5 2.5 C 5.8 -0.8 11.1 -0.8 14.4 2.5 " fill="none" stroke="#E1163C" stroke-width="1.00" transform="matrix(1.00, 0.00, 0.00, -1.00, 215.0, 139.2)"></path><path d="M 336.7 136.5 C 340.0 133.2 340.0 127.9 336.7 124.6 C 333.4 121.3 328.1 121.3 324.8 124.6 C 321.5 127.9 321.5 133.2 324.8 136.5 C 328.1 139.8 333.4 139.8 336.7 136.5 " fill="#E1163C"></path><path d="M 14.4 2.5 C 17.7 5.8 17.7 11.1 14.4 14.4 C 11.1 17.7 5.8 17.7 2.5 14.4 C -0.8 11.1 -0.8 5.8 2.5 2.5 C 5.8 -0.8 11.1 -0.8 14.4 2.5 " fill="none" stroke="#E1163C" stroke-width="1.00" transform="matrix(1.00, 0.00, 0.00, -1.00, 322.3, 139.0)"></path><path d="M 0.0 0.0 L 17.7 50.7 " fill="none" stroke="#E1163C" stroke-width="3.00" transform="matrix(1.00, 0.08, 0.08, -1.00, 174.2, 177.3)"></path><path d="M 283.4 136.8 C 286.7 133.5 286.7 128.1 283.4 124.8 C 280.1 121.5 274.8 121.5 271.5 124.8 C 268.2 128.1 268.2 133.5 271.5 136.8 C 274.8 140.1 280.1 140.1 283.4 136.8 " fill="#E1163C"></path><path d="M 14.4 2.5 C 17.7 5.8 17.7 11.1 14.4 14.4 C 11.1 17.7 5.8 17.7 2.5 14.4 C -0.8 11.1 -0.8 5.8 2.5 2.5 C 5.8 -0.8 11.1 -0.8 14.4 2.5 " fill="none" stroke="#E1163C" stroke-width="1.00" transform="matrix(1.00, 0.00, 0.00, -1.00, 269.0, 139.2)"></path><path d="M 0.1 -0.2 L 129.1 -0.2 " fill="none" stroke="#E1163C" stroke-width="3.00" transform="matrix(1.00, 0.00, 0.00, -1.00, 194.9, 129.3)"></path><text xml:space="preserve" font-family="AvenirNextCondensed-DemiBold,Avenir Next Condensed" font-weight="bold" font-size="14.0" fill="#85878C" transform="matrix(1.00, 0.00, -0.00, -1.00, 54.0, 168.3)">m</text><text xml:space="preserve" font-family="AvenirNextCondensed-DemiBold,Avenir Next Condensed" font-weight="bold" font-size="14.0" fill="#85878C" transform="matrix(1.00, 0.00, -0.00, -1.00, 64.6, 168.3)">a</text><text xml:space="preserve" font-family="AvenirNextCondensed-DemiBold,Avenir Next Condensed" font-weight="bold" font-size="14.0" fill="#85878C" transform="matrix(1.00, 0.00, -0.00, -1.00, 70.7, 168.3)">s</text><text xml:space="preserve" font-family="AvenirNextCondensed-DemiBold,Avenir Next Condensed" font-weight="bold" font-size="14.0" fill="#85878C" transform="matrix(1.00, 0.00, -0.00, -1.00, 75.9, 168.3)">t</text><text xml:space="preserve" font-family="AvenirNextCondensed-DemiBold,Avenir Next Condensed" font-weight="bold" font-size="14.0" fill="#85878C" transform="matrix(1.00, 0.00, -0.00, -1.00, 79.9, 168.3)">e</text><text xml:space="preserve" font-family="AvenirNextCondensed-DemiBold,Avenir Next Condensed" font-weight="bold" font-size="14.0" fill="#85878C" transform="matrix(1.00, 0.00, -0.00, -1.00, 86.2, 168.3)">r</text><path d="M 586.4 90.7 C 589.7 87.4 589.7 82.1 586.4 78.8 C 583.1 75.5 577.8 75.5 574.5 78.8 C 571.2 82.1 571.2 87.4 574.5 90.7 C 577.8 94.0 583.1 94.0 586.4 90.7 " fill="#2B91D9"></path><path d="M 14.4 2.5 C 17.7 5.8 17.7 11.1 14.4 14.4 C 11.1 17.7 5.8 17.7 2.5 14.4 C -0.8 11.1 -0.8 5.8 2.5 2.5 C 5.8 -0.8 11.1 -0.8 14.4 2.5 " fill="none" stroke="#2B91D9" stroke-width="1.00" transform="matrix(1.00, 0.00, 0.00, -1.00, 572.0, 93.2)"></path><path d="M 0.1 0.1 L 90.1 0.1 " fill="none" stroke="#85878C" stroke-width="3.00" stroke-dasharray="3.0, 3.0" transform="matrix(1.00, 0.00, 0.00, -1.00, 210.9, 171.6)"></path><path d="M 181.2 178.7 C 184.5 175.4 184.5 170.0 181.2 166.7 C 177.9 163.4 172.6 163.4 169.3 166.7 C 166.0 170.0 166.0 175.4 169.3 178.7 C 172.6 182.0 177.9 182.0 181.2 178.7 " fill="#85878C"></path><path d="M 14.4 2.5 C 17.7 5.8 17.7 11.1 14.4 14.4 C 11.1 17.7 5.8 17.7 2.5 14.4 C -0.8 11.1 -0.8 5.8 2.5 2.5 C 5.8 -0.8 11.1 -0.8 14.4 2.5 " fill="none" stroke="#85878C" stroke-width="1.00" transform="matrix(1.00, 0.00, 0.00, -1.00, 166.8, 181.2)"></path></g></svg>